<?xml version="1.0" encoding="iso-8859-1"?>
<!-- Generator: Adobe Illustrator 19.0.0, SVG Export Plug-In . SVG Version: 6.00 Build 0)  -->
<svg xmlns="http://www.w3.org/2000/svg" xmlns:xlink="http://www.w3.org/1999/xlink" version="1.1" id="Layer_1" x="0px" y="0px" viewBox="0 0 512 512" style="enable-background:new 0 0 512 512;" xml:space="preserve" width="512px" height="512px">
<g>
	<g>
		<path d="M498.966,339.946c-7.197,0-13.034,5.837-13.034,13.034v49.804c0,28.747-23.388,52.135-52.135,52.135H78.203    c-28.747,0-52.135-23.388-52.135-52.135V352.98c0-7.197-5.835-13.034-13.034-13.034C5.835,339.946,0,345.782,0,352.98v49.804    c0,43.121,35.082,78.203,78.203,78.203h355.594c43.121,0,78.203-35.082,78.203-78.203V352.98    C512,345.782,506.165,339.946,498.966,339.946z" fill="#c4c4c5"/>
	</g>
</g>
<g>
	<g>
		<path d="M419.833,391.3H92.167c-7.197,0-13.034,5.837-13.034,13.034s5.835,13.034,13.034,13.034h327.665    c7.199,0,13.034-5.835,13.034-13.034C432.866,397.137,427.031,391.3,419.833,391.3z" fill="#c4c4c5"/>
	</g>
</g>
<g>
	<g>
		<path d="M387.919,207.93c-4.795-5.367-13.034-5.834-18.404-1.038l-100.482,89.765V44.048c0-7.197-5.835-13.034-13.034-13.034    c-7.197,0-13.034,5.835-13.034,13.034v252.609l-100.482-89.764c-5.367-4.796-13.607-4.328-18.404,1.038    c-4.794,5.369-4.331,13.609,1.037,18.404l109.174,97.527c6.187,5.529,13.946,8.292,21.708,8.292    c7.759,0,15.519-2.763,21.708-8.289l109.174-97.53C392.25,221.537,392.714,213.297,387.919,207.93z" fill="#c4c4c5"/>
	</g>
</g>
<g>
</g>
<g>
</g>
<g>
</g>
<g>
</g>
<g>
</g>
<g>
</g>
<g>
</g>
<g>
</g>
<g>
</g>
<g>
</g>
<g>
</g>
<g>
</g>
<g>
</g>
<g>
</g>
<g>
</g>
</svg>
