<?xml version="1.0" encoding="iso-8859-1"?>
<!-- Generator: Adobe Illustrator 19.0.0, SVG Export Plug-In . SVG Version: 6.00 Build 0)  -->
<svg xmlns="http://www.w3.org/2000/svg" xmlns:xlink="http://www.w3.org/1999/xlink" version="1.1" id="Layer_1" x="0px" y="0px" viewBox="0 0 512 512" style="enable-background:new 0 0 512 512;" xml:space="preserve" width="512px" height="512px">
<g>
	<g>
		<path d="M477.607,128.055C443.432,68.863,388.251,26.52,322.229,8.83C256.208-8.862,187.248,0.218,128.055,34.393    C68.861,68.57,26.52,123.75,8.83,189.771c-17.692,66.022-8.611,134.982,25.564,194.174    c34.175,59.192,89.355,101.535,155.377,119.225c22.046,5.908,44.417,8.83,66.646,8.83c44.339-0.001,88.101-11.629,127.529-34.395    C443.137,443.43,485.48,388.25,503.17,322.228C520.862,256.207,511.781,187.248,477.607,128.055z M477.431,315.333    c-15.848,59.146-53.78,108.579-106.81,139.197c-53.03,30.616-114.808,38.749-173.954,22.901    c-59.146-15.849-108.579-53.78-139.197-106.81c-30.616-53.028-38.749-114.807-22.901-173.954    c15.848-59.146,53.78-108.579,106.81-139.197c53.03-30.616,114.81-38.748,173.952-22.901    c59.146,15.848,108.581,53.78,139.197,106.81C485.145,194.407,493.28,256.186,477.431,315.333z" fill="#c4c4c5"/>
	</g>
</g>
<g>
	<g>
		<path d="M311.843,233.811l-138.971-80.236c-8.024-4.631-17.601-4.631-25.624-0.001c-8.022,4.631-12.812,12.927-12.812,22.191    v160.471c0,9.264,4.79,17.558,12.812,22.191c4.01,2.317,8.41,3.474,12.81,3.474c4.401,0,8.802-1.158,12.812-3.474l138.973-80.236    c8.021-4.63,12.811-12.927,12.811-22.19C324.654,246.738,319.864,238.442,311.843,233.811z M161.083,334.461V177.539    l135.899,78.46L161.083,334.461z" fill="#c4c4c5"/>
	</g>
</g>
<g>
	<g>
		<path d="M364.241,153.2c-7.358,0-13.324,5.967-13.324,13.324v178.968c0,7.358,5.966,13.324,13.324,13.324    s13.324-5.965,13.324-13.324V166.524C377.565,159.167,371.599,153.2,364.241,153.2z" fill="#c4c4c5"/>
	</g>
</g>
<g>
</g>
<g>
</g>
<g>
</g>
<g>
</g>
<g>
</g>
<g>
</g>
<g>
</g>
<g>
</g>
<g>
</g>
<g>
</g>
<g>
</g>
<g>
</g>
<g>
</g>
<g>
</g>
<g>
</g>
</svg>
